<svg width="24" height="24" viewBox="0 0 24 24" fill="none" xmlns="http://www.w3.org/2000/svg">
<path fill-rule="evenodd" clip-rule="evenodd" d="M3.46447 3.46447C2 4.92893 2 7.28595 2 12C2 16.714 2 19.0711 3.46447 20.5355C4.92893 22 7.28596 22 12 22C16.714 22 19.0711 22 20.5355 20.5355C22 19.0711 22 16.714 22 12C22 7.28595 22 4.92893 20.5355 3.46447C19.0711 2 16.714 2 12 2C7.28596 2 4.92893 2 3.46447 3.46447ZM10.9307 7.56507C11.2427 7.29271 11.2749 6.81893 11.0026 6.50685C10.7302 6.19477 10.2564 6.16257 9.94435 6.43493L6.50685 9.43493C6.2713 9.6405 6.18798 9.97062 6.29775 10.2633C6.40753 10.5561 6.68737 10.75 7 10.75L17 10.75C17.4142 10.75 17.75 10.4142 17.75 10C17.75 9.58579 17.4142 9.25 17 9.25H9L10.9307 7.56507ZM17.7022 13.7367C17.5925 13.4439 17.3126 13.25 17 13.25L7 13.25C6.58579 13.25 6.25 13.5858 6.25 14C6.25 14.4142 6.58579 14.75 7 14.75L15 14.75L13.0694 16.4349C12.7573 16.7073 12.7251 17.1811 12.9974 17.4931C13.2698 17.8052 13.7436 17.8374 14.0557 17.5651L17.4932 14.5651C17.7287 14.3595 17.812 14.0294 17.7022 13.7367Z" fill="#7D7D7D"/>
</svg>
