<svg width="16" height="16" viewBox="0 0 16 16" fill="none" xmlns="http://www.w3.org/2000/svg">
<path fill-rule="evenodd" clip-rule="evenodd" d="M15.1667 4.66666C15.1667 4.9428 14.9428 5.16666 14.6667 5.16666L1.33332 5.16666C1.05718 5.16666 0.833324 4.9428 0.833324 4.66666C0.833324 4.39051 1.05718 4.16666 1.33332 4.16666L14.6667 4.16666C14.9428 4.16666 15.1667 4.39051 15.1667 4.66666Z" fill="#517886"/>
<path fill-rule="evenodd" clip-rule="evenodd" d="M13.1667 8C13.1667 8.27614 12.9428 8.5 12.6667 8.5L3.33332 8.5C3.05718 8.5 2.83332 8.27614 2.83332 8C2.83332 7.72386 3.05718 7.5 3.33332 7.5L12.6667 7.5C12.9428 7.5 13.1667 7.72386 13.1667 8Z" fill="#517886"/>
<path fill-rule="evenodd" clip-rule="evenodd" d="M11.1667 11.3333C11.1667 11.6095 10.9428 11.8333 10.6667 11.8333H5.33332C5.05718 11.8333 4.83332 11.6095 4.83332 11.3333C4.83332 11.0572 5.05718 10.8333 5.33332 10.8333H10.6667C10.9428 10.8333 11.1667 11.0572 11.1667 11.3333Z" fill="#517886"/>
</svg>
