<svg width="36" height="37" viewBox="0 0 36 37" fill="none" xmlns="http://www.w3.org/2000/svg">
<circle cx="18" cy="18.5" r="18" fill="#2775CA"/>
<path d="M20.59 17.5H24V15.5H22.32C22.74 14.84 23 14.18 23 13.5C23 10.87 20.5 9.5 18 9.5C15.65 9.5 13.53 11.56 13.29 11.79L14.71 13.21C15.19 12.73 16.71 11.5 18 11.5C19.04 11.5 21 11.92 21 13.5C21 14 20.5 14.74 19.76 15.5H12V17.5H17.63C17.21 17.86 15.75 19.17 15.41 19.5H12V21.5H13.68C13.26 22.16 13 22.82 13 23.5C13 26.13 15.5 27.5 18 27.5C20.35 27.5 22.47 25.44 22.71 25.21L21.29 23.79C20.82 24.27 19.29 25.5 18 25.5C16.96 25.5 15 25.08 15 23.5C15 23 15.5 22.26 16.24 21.5H24V19.5H18.38L20.59 17.5Z" fill="#E6E0E9"/>
</svg>
