<svg width="36" height="37" viewBox="0 0 36 37" fill="none" xmlns="http://www.w3.org/2000/svg">
<g clip-path="url(#clip0_2_127)">
<path fill-rule="evenodd" clip-rule="evenodd" d="M7.22555 4.14545L1.02616 17.1673C1.00257 17.2157 0.995092 17.2704 1.00482 17.3234C1.01456 17.3764 1.04099 17.4249 1.08025 17.4618L17.8233 33.5057C17.8709 33.5513 17.9342 33.5767 18.0001 33.5767C18.066 33.5767 18.1294 33.5513 18.1769 33.5057L34.92 17.4628C34.9592 17.4259 34.9857 17.3774 34.9954 17.3244C35.0051 17.2714 34.9977 17.2167 34.9741 17.1683L28.7747 4.14645C28.7547 4.10271 28.7225 4.06567 28.682 4.03973C28.6415 4.0138 28.5944 4.00008 28.5463 4.0002H7.45594C7.40762 3.9996 7.36015 4.01299 7.31927 4.03877C7.27839 4.06454 7.24584 4.10159 7.22555 4.14545Z" fill="#50AF95"/>
<path fill-rule="evenodd" clip-rule="evenodd" d="M20.1511 18.5045C20.0309 18.5135 19.4099 18.5506 18.0245 18.5506C16.9227 18.5506 16.1404 18.5175 15.8659 18.5045C11.6078 18.3172 8.42944 17.5759 8.42944 16.6885C8.42944 15.801 11.6078 15.0607 15.8659 14.8704V17.7663C16.1444 17.7863 16.9417 17.8334 18.0436 17.8334C19.3658 17.8334 20.0279 17.7783 20.1471 17.7673V14.8724C24.3962 15.0617 27.5675 15.803 27.5675 16.6885C27.5675 17.5739 24.3972 18.3152 20.1471 18.5035L20.1511 18.5045ZM20.1511 14.5729V11.9816H26.081V8.02994H9.93597V11.9816H15.8649V14.5719C11.0458 14.7933 7.42175 15.7479 7.42175 16.8918C7.42175 18.0357 11.0458 18.9893 15.8649 19.2117V27.5156H20.1501V19.2087C24.9582 18.9873 28.5762 18.0337 28.5762 16.8908C28.5762 15.7479 24.9612 14.7943 20.1501 14.5719L20.1511 14.5729Z" fill="#E6E0E9"/>
</g>
<defs>
<clipPath id="clip0_2_127">
<rect width="34" height="29.5766" fill="white" transform="translate(1 4.00021)"/>
</clipPath>
</defs>
</svg>
