<svg width="19" height="18" viewBox="0 0 19 18" fill="none" xmlns="http://www.w3.org/2000/svg">
<path fill-rule="evenodd" clip-rule="evenodd" d="M2.44466 9C2.44466 5.46447 2.44466 3.6967 3.54301 2.59835C4.64136 1.5 6.40912 1.5 9.94466 1.5C13.4802 1.5 15.248 1.5 16.3463 2.59835C17.4447 3.6967 17.4447 5.46447 17.4447 9C17.4447 12.5355 17.4447 14.3033 16.3463 15.4016C15.248 16.5 13.4802 16.5 9.94466 16.5C6.40912 16.5 4.64136 16.5 3.54301 15.4016C2.44466 14.3033 2.44466 12.5355 2.44466 9ZM9.94466 4.6875C10.2553 4.6875 10.5072 4.93934 10.5072 5.25V9.142L11.7969 7.85225C12.0166 7.63258 12.3727 7.63258 12.5924 7.85225C12.8121 8.07192 12.8121 8.42808 12.5924 8.64775L10.3424 10.8977C10.2369 11.0032 10.0938 11.0625 9.94466 11.0625C9.79547 11.0625 9.6524 11.0032 9.54691 10.8977L7.29691 8.64775C7.07724 8.42808 7.07724 8.07192 7.29691 7.85225C7.51658 7.63258 7.87273 7.63258 8.0924 7.85225L9.38216 9.142V5.25C9.38216 4.93934 9.63399 4.6875 9.94466 4.6875ZM6.94466 12.1875C6.634 12.1875 6.38216 12.4393 6.38216 12.75C6.38216 13.0607 6.634 13.3125 6.94466 13.3125H12.9447C13.2553 13.3125 13.5072 13.0607 13.5072 12.75C13.5072 12.4393 13.2553 12.1875 12.9447 12.1875H6.94466Z" fill="#E6E0E9"/>
</svg>
