<svg width="19" height="18" viewBox="0 0 19 18" fill="none" xmlns="http://www.w3.org/2000/svg">
<path fill-rule="evenodd" clip-rule="evenodd" d="M1.55731 9C1.55731 5.46447 1.55731 3.6967 2.65566 2.59835C3.75401 1.5 5.52178 1.5 9.05731 1.5C12.5928 1.5 14.3606 1.5 15.459 2.59835C16.5573 3.6967 16.5573 5.46447 16.5573 9C16.5573 12.5355 16.5573 14.3033 15.459 15.4017C14.3606 16.5 12.5928 16.5 9.05731 16.5C5.52178 16.5 3.75401 16.5 2.65566 15.4017C1.55731 14.3033 1.55731 12.5355 1.55731 9ZM9.05731 13.3125C9.36797 13.3125 9.61981 13.0607 9.61981 12.75V8.858L10.9096 10.1477C11.1292 10.3674 11.4854 10.3674 11.7051 10.1477C11.9247 9.92808 11.9247 9.57192 11.7051 9.35225L9.45506 7.10225C9.34957 6.99676 9.2065 6.9375 9.05731 6.9375C8.90813 6.9375 8.76505 6.99676 8.65956 7.10225L6.40956 9.35225C6.18989 9.57192 6.18989 9.92808 6.40956 10.1477C6.62923 10.3674 6.98539 10.3674 7.20506 10.1477L8.49481 8.858V12.75C8.49481 13.0607 8.74665 13.3125 9.05731 13.3125ZM6.05731 5.8125C5.74665 5.8125 5.49481 5.56066 5.49481 5.25C5.49481 4.93934 5.74665 4.6875 6.05731 4.6875H12.0573C12.368 4.6875 12.6198 4.93934 12.6198 5.25C12.6198 5.56066 12.368 5.8125 12.0573 5.8125H6.05731Z" fill="#E6E0E9"/>
</svg>
