<svg width="18" height="18" viewBox="0 0 18 18" fill="none" xmlns="http://www.w3.org/2000/svg">
<path fill-rule="evenodd" clip-rule="evenodd" d="M2.59835 2.59835C1.5 3.6967 1.5 5.46447 1.5 9C1.5 12.5355 1.5 14.3033 2.59835 15.4017C3.6967 16.5 5.46447 16.5 9 16.5C12.5355 16.5 14.3033 16.5 15.4017 15.4017C16.5 14.3033 16.5 12.5355 16.5 9C16.5 5.46447 16.5 3.6967 15.4017 2.59835C14.3033 1.5 12.5355 1.5 9 1.5C5.46447 1.5 3.6967 1.5 2.59835 2.59835ZM8.19799 5.6738C8.43205 5.46953 8.4562 5.1142 8.25193 4.88014C8.04766 4.64608 7.69232 4.62193 7.45826 4.8262L4.88014 7.0762C4.70348 7.23037 4.64099 7.47796 4.72332 7.69751C4.80564 7.91705 5.01552 8.0625 5.25 8.0625L12.75 8.0625C13.0607 8.0625 13.3125 7.81066 13.3125 7.5C13.3125 7.18934 13.0607 6.9375 12.75 6.9375L6.75 6.9375L8.19799 5.6738ZM13.2767 10.3025C13.1944 10.0829 12.9845 9.9375 12.75 9.9375L5.25 9.9375C4.93934 9.9375 4.6875 10.1893 4.6875 10.5C4.6875 10.8107 4.93934 11.0625 5.25 11.0625L11.25 11.0625L9.80201 12.3262C9.56795 12.5305 9.5438 12.8858 9.74807 13.1199C9.95234 13.3539 10.3077 13.3781 10.5417 13.1738L13.1199 10.9238C13.2965 10.7696 13.359 10.522 13.2767 10.3025Z" fill="#E6E0E9"/>
</svg>
